<?xml version="1.0" encoding="UTF-8" standalone="no"?>
<svg
   id="Layer_1"
   data-name="Layer 1"
   viewBox="0 0 500 202"
   version="1.1"
   sodipodi:docname="redevs.svg"
   inkscape:version="1.3 (0e150ed, 2023-07-21)"
   xmlns:inkscape="http://www.inkscape.org/namespaces/inkscape"
   xmlns:sodipodi="http://sodipodi.sourceforge.net/DTD/sodipodi-0.dtd"
   xmlns="http://www.w3.org/2000/svg"
   xmlns:svg="http://www.w3.org/2000/svg">
  <sodipodi:namedview
     id="namedview7"
     pagecolor="#ffffff"
     bordercolor="#000000"
     borderopacity="0.25"
     inkscape:showpageshadow="2"
     inkscape:pageopacity="0.0"
     inkscape:pagecheckerboard="0"
     inkscape:deskcolor="#d1d1d1"
     inkscape:zoom="1.158"
     inkscape:cx="249.56822"
     inkscape:cy="101.03627"
     inkscape:window-width="1312"
     inkscape:window-height="449"
     inkscape:window-x="0"
     inkscape:window-y="25"
     inkscape:window-maximized="0"
     inkscape:current-layer="Layer_1" />
  <defs
     id="defs1">
    <style
       id="style1">&#10;      .cls-1 {&#10;        fill: #282425;&#10;      }&#10;    </style>
  </defs>
  <path
     class="cls-1"
     d="M166.14,101.94h0l3.92-4.11h0c7.03-7.35,7.03-19.31,0-26.67l-35.96-37.63c-3.49-3.65-8.14-5.66-13.11-5.65-4.97,0-9.62,2.01-13.1,5.66l-3.56,3.72h0l-3.56-3.72c-3.48-3.65-8.14-5.66-13.11-5.66s-9.62,2.01-13.11,5.66l-3.56,3.73-3.57-3.73c-3.49-3.65-8.14-5.65-13.1-5.65h0c-4.97,0-9.62,2.01-13.1,5.66L5.27,71.17c-7.02,7.35-7.02,19.31,0,26.66l3.93,4.11h0l-3.93,4.11c-7.03,7.35-7.03,19.31,0,26.67l35.95,37.63c3.49,3.65,8.14,5.66,13.11,5.66h0c4.96,0,9.62-2.01,13.1-5.65l3.57-3.73,3.56,3.73c3.49,3.65,8.14,5.66,13.11,5.66s9.62-2.01,13.11-5.66l3.56-3.72,3.56,3.72c3.48,3.65,8.14,5.66,13.11,5.66h0c4.96,0,9.62-2.01,13.1-5.65l35.96-37.63c7.03-7.35,7.03-19.31,0-26.67l-3.92-4.11Zm-91.58,47.18l-3.56,3.73L22.36,101.94l24.32-25.45,24.32-25.45,3.56,3.73c.5,.52,1.02,.99,1.56,1.45,.88,.74,1.82,1.39,2.81,1.95,0,0,0,0,0,0,1.06,.59,2.17,1.07,3.32,1.43,.01,0,.03,0,.04,.01,1.14,.36,2.32,.6,3.52,.72,.31,.03,.62,.03,.93,.05,.3,.02,.61,.05,.91,.05h0c1.24,0,2.46-.13,3.65-.37,3.57-.74,6.84-2.55,9.45-5.28l3.29-3.44,.27-.28,48.64,50.9-48.64,50.9-3.56-3.73c-3.48-3.65-8.14-5.66-13.1-5.66h0c-4.96,0-9.62,2.01-13.1,5.65ZM114.84,40.04c1.66-1.74,3.85-2.69,6.16-2.69s4.5,.96,6.16,2.69l35.96,37.63c3.6,3.77,3.6,9.89,0,13.66h0l-3.56,3.72-48.64-50.9,3.92-4.11Zm-33.33,0c1.66-1.74,3.85-2.69,6.16-2.69s4.5,.96,6.16,2.69l3.93,4.11-3.93,4.11c-1.04,1.09-2.28,1.87-3.63,2.3-.81,.26-1.66,.39-2.52,.39-2.31,0-4.5-.96-6.15-2.69l-3.93-4.11,3.93-4.11ZM12.22,91.33c-3.6-3.77-3.6-9.89,0-13.66L48.17,40.04c1.66-1.74,3.85-2.69,6.15-2.69s4.5,.96,6.15,2.69l3.93,4.11-24.32,25.45-24.32,25.45-3.56-3.72Zm42.11,75.21h0c-2.31,0-4.5-.96-6.16-2.69L12.22,126.21c-3.6-3.77-3.6-9.89,0-13.66l3.56-3.72,48.64,50.9-3.93,4.11c-1.66,1.74-3.84,2.69-6.15,2.69Zm33.34,0c-2.31,0-4.5-.96-6.16-2.69l-3.93-4.11,3.93-4.11c1.66-1.74,3.85-2.69,6.15-2.69s4.5,.96,6.16,2.69l3.93,4.11-3.93,4.11c-1.66,1.74-3.85,2.69-6.16,2.69Zm75.45-40.33l-35.96,37.63c-1.66,1.74-3.85,2.69-6.16,2.69s-4.5-.96-6.15-2.69l-3.92-4.11,48.64-50.9,3.56,3.72c3.6,3.77,3.6,9.89,0,13.66Z"
     id="path1"
     style="fill:#000000;fill-opacity:1" />
  <g
     id="g7"
     style="fill:#000000;fill-opacity:1">
    <path
       class="cls-1"
       d="M208.85,79.02h14.93v8.85c1.79-6.11,5.45-9.56,12.61-9.56h3.76v14.78h-5.45c-7.33,0-10.46,3.54-10.46,12.48v17.7h-15.38v-44.24Z"
       id="path2"
       style="fill:#000000;fill-opacity:1" />
    <path
       class="cls-1"
       d="M243.45,101.05c0-12.83,7.51-23.45,24.68-23.45,18.24,0,24.05,11.41,24.05,23.71,0,1.42-.09,2.74-.27,3.72h-33.53c.9,7.08,4.47,9.47,10.1,9.47,4.56,0,7.33-1.95,8.58-4.6h14.93c-1.43,7.61-7.6,14.78-23.87,14.78-18.15,0-24.68-11.5-24.68-23.62Zm34.16-4.87c-.54-5.57-3.31-8.58-9.21-8.58s-8.85,2.21-9.84,8.58h19.05Z"
       id="path3"
       style="fill:#000000;fill-opacity:1" />
    <path
       class="cls-1"
       d="M332.51,85.13v-23.8h15.38v61.94h-15.38v-6.11c-3.04,4.78-8.14,7.52-15.74,7.52-14.66,0-20.48-10.97-20.48-23.62s5.81-23.45,20.48-23.45c7.6,0,12.7,2.83,15.74,7.52Zm-10.55,27.69c7.87,0,10.55-3.8,10.55-11.68s-2.68-11.68-10.55-11.68-10.28,3.45-10.28,11.68,2.68,11.68,10.28,11.68Z"
       id="path4"
       style="fill:#000000;fill-opacity:1" />
    <path
       class="cls-1"
       d="M354.42,101.05c0-12.83,7.51-23.45,24.68-23.45,18.24,0,24.05,11.41,24.05,23.71,0,1.42-.09,2.74-.27,3.72h-33.53c.89,7.08,4.47,9.47,10.1,9.47,4.56,0,7.33-1.95,8.58-4.6h14.93c-1.43,7.61-7.6,14.78-23.87,14.78-18.15,0-24.68-11.5-24.68-23.62Zm34.16-4.87c-.54-5.57-3.31-8.58-9.21-8.58s-8.85,2.21-9.84,8.58h19.05Z"
       id="path5"
       style="fill:#000000;fill-opacity:1" />
    <path
       class="cls-1"
       d="M418.81,79.02l10.73,32.74,10.73-32.74h14.58l-14.84,44.24h-22l-14.84-44.24h15.65Z"
       id="path6"
       style="fill:#000000;fill-opacity:1" />
    <path
       class="cls-1"
       d="M478.36,115.57c5.01,0,6.97-1.59,6.97-4.16,0-2.21-.81-4.07-5.99-4.69l-9.48-1.06c-8.67-.97-13.32-5.58-13.32-13.27,0-10.53,9.12-14.78,21.1-14.78s20.92,4.16,21.82,14.51h-13.95c-.45-3.45-2.86-5.49-7.78-5.49-5.19,0-7.15,1.86-7.15,4.34,0,1.86,1.07,3.54,5.28,3.98l9.21,.88c10.55,1.06,14.93,5.31,14.93,13.8s-5.27,15.04-21.91,15.04-22.44-7.52-22.8-15.66h13.95c.36,3.63,3.4,6.55,9.12,6.55Z"
       id="path7"
       style="fill:#000000;fill-opacity:1" />
  </g>
</svg>
